<?xml version="1.0" standalone="no"?>
<!DOCTYPE svg PUBLIC "-//W3C//DTD SVG 20010904//EN"
 "http://www.w3.org/TR/2001/REC-SVG-20010904/DTD/svg10.dtd">
<svg version="1.0" xmlns="http://www.w3.org/2000/svg"
 width="260.000000pt" height="260.000000pt" viewBox="0 0 260.000000 260.000000"
 preserveAspectRatio="xMidYMid meet">
<metadata>
Created by potrace 1.11, written by Peter Selinger 2001-2013
</metadata>
<g transform="translate(0.000000,260.000000) scale(0.100000,-0.100000)"
fill="#000000" stroke="none">
<path d="M1165 2593 c-360 -41 -693 -232 -903 -517 -37 -50 -73 -102 -81 -116
-126 -222 -181 -439 -176 -689 7 -341 134 -644 372 -886 74 -76 228 -195 251
-195 6 0 12 -4 14 -9 6 -15 190 -98 278 -125 137 -41 248 -55 415 -52 201 5
337 36 513 117 373 173 637 505 728 920 27 121 27 369 0 513 -95 509 -532 936
-1051 1026 -67 12 -298 20 -360 13z"/>
</g>
</svg>
