<svg id="Layer_1" data-name="Layer 1" xmlns="http://www.w3.org/2000/svg" viewBox="0 0 404.72 405.46"><defs><style>.cls-1{fill:#fff;}.cls-2{fill:#009590;}.cls-3,.cls-4,.cls-5,.cls-6{fill:none;}.cls-3,.cls-4,.cls-5{stroke:#fff;}.cls-3{stroke-width:6.51px;}.cls-4{stroke-width:18px;}.cls-5{stroke-width:15.43px;}.cls-6{stroke:#009590;stroke-width:2.17px;}.cls-7{fill:#231f20;}</style></defs><title>Artboard 1</title><path class="cls-1" d="M202.5,403.47c110.58,0,200.23-89.65,200.23-200.23S313.08,3,202.5,3,2.27,92.65,2.27,203.24,91.92,403.47,202.5,403.47Z"/><path class="cls-2" d="M202.41,358.08A155.75,155.75,0,1,0,46.67,202.33,155.75,155.75,0,0,0,202.41,358.08Z"/><path class="cls-3" d="M200.29,147A49.69,49.69,0,1,0,150.6,97.35,49.68,49.68,0,0,0,200.29,147Z"/><path class="cls-4" d="M200.29,114.79a17.44,17.44,0,1,0-17.44-17.44,17.44,17.44,0,0,0,17.44,17.44Z"/><path class="cls-5" d="M177.67,97.35S38.8,73.51,36.54,225.06"/><polygon class="cls-1" points="79.17 162.26 167.01 162.26 200.13 298.7 239.73 162.26 325 162.26 331.53 306.08 273.93 367.1 270.33 204.38 222.81 367.1 168.45 367.1 131.37 204.38 125.25 367.1 70.89 306.26 79.17 162.26 79.17 162.26"/><path class="cls-6" d="M202.5,403c110.58,0,200.23-89.65,200.23-200.23S313.08,2.54,202.5,2.54,2.27,92.19,2.27,202.77,91.92,403,202.5,403Z"/><path class="cls-2" d="M21,208.8a6.08,6.08,0,0,1-3.23-3.33,6.23,6.23,0,0,1,.07-4.82,6.59,6.59,0,0,1,1.35-2,6.08,6.08,0,0,1,4.41-1.76,6.09,6.09,0,0,1,2.4.53,6.27,6.27,0,0,1,2,1.36,6.42,6.42,0,0,1,1.31,2,6.16,6.16,0,0,1,.45,2.42,6.1,6.1,0,0,1-.53,2.41,5.94,5.94,0,0,1-1.37,1.94,6.32,6.32,0,0,1-2,1.29,6.16,6.16,0,0,1-2.42.45A6.1,6.1,0,0,1,21,208.8Z"/><path class="cls-7" d="M16.63,176.44l15.19-2.8-13.29-7.91.55-3.08,17,3-.38,2.13-14.1-2.51v.05l13.16,7.81-.34,1.92-15,2.78v.05l14.11,2.51L33,182.55l-17-3Z"/><path class="cls-7" d="M21.55,153.56l16.61,4.5-.59,2.21L21,155.77Z"/><path class="cls-7" d="M28.64,139.16a4.78,4.78,0,0,0-1.76,2.48,6.27,6.27,0,0,0-.34,1.39,3.47,3.47,0,0,0,0,1.33,2.53,2.53,0,0,0,.56,1.12,2.8,2.8,0,0,0,1.22.78,1.8,1.8,0,0,0,1.37,0,3.51,3.51,0,0,0,1.18-.91,10,10,0,0,0,1.08-1.5c.35-.58.72-1.16,1.1-1.75s.78-1.16,1.2-1.71A6.85,6.85,0,0,1,35.71,139a4.09,4.09,0,0,1,1.74-.71,4.86,4.86,0,0,1,4.17,1.63,4.92,4.92,0,0,1,1,2,6.94,6.94,0,0,1,.12,2.33,10.53,10.53,0,0,1-.53,2.33,10.16,10.16,0,0,1-1.25,2.46,6.83,6.83,0,0,1-1.79,1.77,5.18,5.18,0,0,1-2.29.83,6.21,6.21,0,0,1-2.75-.37l.73-2a3.9,3.9,0,0,0,1.9.23,4,4,0,0,0,1.59-.62,4.62,4.62,0,0,0,1.23-1.26,7.47,7.47,0,0,0,.86-1.69,8.45,8.45,0,0,0,.38-1.52,4.39,4.39,0,0,0,0-1.49,2.84,2.84,0,0,0-.56-1.28,2.93,2.93,0,0,0-1.33-.88,2.16,2.16,0,0,0-1.52,0,3.36,3.36,0,0,0-1.27.88A9.1,9.1,0,0,0,35,143.06l-1.09,1.75c-.37.59-.76,1.16-1.17,1.72a7.47,7.47,0,0,1-1.34,1.4,3.55,3.55,0,0,1-3.63.55,4.53,4.53,0,0,1-2-1.26,4.6,4.6,0,0,1-1-1.85,6.34,6.34,0,0,1-.2-2.19,8.94,8.94,0,0,1,.49-2.27,9.22,9.22,0,0,1,1.11-2.22,5.7,5.7,0,0,1,1.6-1.54,4.83,4.83,0,0,1,2.05-.71,6,6,0,0,1,2.49.31l-.72,2A3.57,3.57,0,0,0,28.64,139.16Z"/><path class="cls-7" d="M36.33,121.27a4.9,4.9,0,0,0-2,2.27,6.75,6.75,0,0,0-.49,1.34,3.62,3.62,0,0,0-.11,1.33,2.42,2.42,0,0,0,.43,1.18,2.82,2.82,0,0,0,1.12.91,1.8,1.8,0,0,0,1.37.14,3.31,3.31,0,0,0,1.27-.77,10.63,10.63,0,0,0,1.25-1.37c.41-.53.84-1.07,1.28-1.61s.91-1.06,1.39-1.56a6.81,6.81,0,0,1,1.57-1.21,4,4,0,0,1,3.92,0,4.4,4.4,0,0,1,1.85,1.58,5.06,5.06,0,0,1,.73,2.12,6.85,6.85,0,0,1-.14,2.33,10.63,10.63,0,0,1-.8,2.26,10.32,10.32,0,0,1-1.52,2.3,6.75,6.75,0,0,1-2,1.55,5.17,5.17,0,0,1-2.37.56,5.94,5.94,0,0,1-2.68-.68l1-1.95a3.75,3.75,0,0,0,3.51,0,4.59,4.59,0,0,0,1.37-1.11,7.57,7.57,0,0,0,1-1.58,8.93,8.93,0,0,0,.56-1.47,4.5,4.5,0,0,0,.17-1.48,2.73,2.73,0,0,0-.41-1.33,2.8,2.8,0,0,0-1.22-1,2.16,2.16,0,0,0-1.51-.21,3.49,3.49,0,0,0-1.36.73,8.69,8.69,0,0,0-1.28,1.34l-1.29,1.61c-.43.55-.89,1.08-1.36,1.58a7.44,7.44,0,0,1-1.49,1.25,3.81,3.81,0,0,1-1.7.56,3.74,3.74,0,0,1-2-.44A4.44,4.44,0,0,1,31.82,127a6.05,6.05,0,0,1,.05-2.2,8.78,8.78,0,0,1,.74-2.2A8.94,8.94,0,0,1,34,120.54a5.68,5.68,0,0,1,1.76-1.36,4.91,4.91,0,0,1,2.12-.47,6.16,6.16,0,0,1,2.44.59l-.95,2A3.61,3.61,0,0,0,36.33,121.27Z"/><path class="cls-7" d="M40.29,108.89l14.85,8.7-1.15,2-14.86-8.7Z"/><path class="cls-7" d="M50.79,96.78a4.92,4.92,0,0,0-2.35,1.94,7.62,7.62,0,0,0-.69,1.25,3.91,3.91,0,0,0-.31,1.3,2.66,2.66,0,0,0,.25,1.23,2.88,2.88,0,0,0,1,1.07,1.79,1.79,0,0,0,1.33.34,3.5,3.5,0,0,0,1.38-.57,11.57,11.57,0,0,0,1.43-1.16c.49-.46,1-.93,1.51-1.4s1.06-.92,1.61-1.34a7,7,0,0,1,1.73-1,4.26,4.26,0,0,1,1.87-.24,4.34,4.34,0,0,1,2,.82,4.41,4.41,0,0,1,1.59,1.85,5.19,5.19,0,0,1,.41,2.2,6.93,6.93,0,0,1-.5,2.28,10.11,10.11,0,0,1-1.12,2.11,9.93,9.93,0,0,1-1.86,2,6.67,6.67,0,0,1-2.19,1.24,5.18,5.18,0,0,1-2.42.2,6.06,6.06,0,0,1-2.56-1.08l1.24-1.78a3.82,3.82,0,0,0,1.78.71,3.7,3.7,0,0,0,1.69-.18,4.46,4.46,0,0,0,1.52-.89,7.11,7.11,0,0,0,1.27-1.41,8.23,8.23,0,0,0,.77-1.36,4.43,4.43,0,0,0,.39-1.44A2.61,2.61,0,0,0,60.3,101a2.15,2.15,0,0,0-1.46-.44,3.49,3.49,0,0,0-1.46.52,9.5,9.5,0,0,0-1.47,1.13l-1.51,1.41c-.52.47-1,.92-1.58,1.35a7.11,7.11,0,0,1-1.67,1,3.69,3.69,0,0,1-1.76.31,3.77,3.77,0,0,1-1.89-.73,4.44,4.44,0,0,1-2-3.77,6.17,6.17,0,0,1,.38-2.17,8.81,8.81,0,0,1,1.06-2.07,9.59,9.59,0,0,1,1.66-1.84,5.55,5.55,0,0,1,1.94-1.07,4.8,4.8,0,0,1,2.17-.15,6.17,6.17,0,0,1,2.32,1l-1.23,1.78A3.64,3.64,0,0,0,50.79,96.78Z"/><path class="cls-7" d="M62.66,81.6a4.88,4.88,0,0,0-2.53,1.7,7.18,7.18,0,0,0-.81,1.17,3.73,3.73,0,0,0-.44,1.26A2.55,2.55,0,0,0,59,87a2.68,2.68,0,0,0,.86,1.16,1.83,1.83,0,0,0,1.29.48,3.64,3.64,0,0,0,1.43-.43,11,11,0,0,0,1.54-1c.53-.41,1.08-.83,1.64-1.24s1.15-.81,1.74-1.17A6.71,6.71,0,0,1,69.33,84a4.26,4.26,0,0,1,1.88,0,4.4,4.4,0,0,1,1.92,1,4.3,4.3,0,0,1,1.39,2,5.16,5.16,0,0,1,.19,2.24A7.21,7.21,0,0,1,74,91.4a11,11,0,0,1-1.33,2,10.16,10.16,0,0,1-2,1.85,6.77,6.77,0,0,1-2.3,1,5.13,5.13,0,0,1-2.43,0,6.09,6.09,0,0,1-2.44-1.33l1.41-1.65a3.84,3.84,0,0,0,1.7.89,3.9,3.9,0,0,0,1.7,0,4.76,4.76,0,0,0,1.61-.74,7.63,7.63,0,0,0,1.4-1.27,8.85,8.85,0,0,0,.89-1.28,4.4,4.4,0,0,0,.54-1.4A2.69,2.69,0,0,0,72.62,88a2.88,2.88,0,0,0-.92-1.3,2.18,2.18,0,0,0-1.41-.58,3.45,3.45,0,0,0-1.5.37,9.86,9.86,0,0,0-1.58,1l-1.64,1.25c-.56.42-1.13.82-1.71,1.19a7.19,7.19,0,0,1-1.76.83A3.56,3.56,0,0,1,58.52,90a4.62,4.62,0,0,1-1.38-1.87A4.68,4.68,0,0,1,56.86,86a6.44,6.44,0,0,1,.6-2.12,8.78,8.78,0,0,1,1.26-2,9.46,9.46,0,0,1,1.83-1.67,5.5,5.5,0,0,1,2.05-.87,4.84,4.84,0,0,1,2.17.07A6,6,0,0,1,67,80.67l-1.4,1.66A3.59,3.59,0,0,0,62.66,81.6Z"/><path class="cls-7" d="M69.78,70.55l12.1,12.24L80.25,84.4,68.15,72.16Z"/><path class="cls-7" d="M80.67,60.5A5.34,5.34,0,0,1,84.54,59a5,5,0,0,1,3.45,2,5.1,5.1,0,0,1,1.43,3.73,5.3,5.3,0,0,1-2.14,3.57l-4,3.41L87.85,77l-1.74,1.49L74.93,65.39Zm4.77,6.77a4.11,4.11,0,0,0,1.66-2.46,3.05,3.05,0,0,0-.85-2.39A3,3,0,0,0,84,61.22a4.28,4.28,0,0,0-2.7,1.24l-3.41,2.92,4.1,4.8Z"/><path class="cls-7" d="M95.72,49a5.37,5.37,0,0,1,4-1.16A5.06,5.06,0,0,1,103,50.1,5.13,5.13,0,0,1,104,54a5.25,5.25,0,0,1-2.47,3.34l-4.31,3,4,5.77-1.88,1.32L89.53,53.27Zm4.09,7.2a4.09,4.09,0,0,0,1.89-2.29,3,3,0,0,0-.62-2.45A2.92,2.92,0,0,0,99,50a4.22,4.22,0,0,0-2.81,1l-3.68,2.57,3.62,5.18Z"/><path class="cls-7" d="M107.6,41.38l8.64,14.89-2,1.15-8.64-14.89Z"/><path class="cls-2" d="M129.28,30.53a7.13,7.13,0,0,1,2.72-.66,5.24,5.24,0,0,1,2.18.41,4.84,4.84,0,0,1,1.65,1.21,6.66,6.66,0,0,1,1.11,1.75,6.59,6.59,0,0,1,.5,2,4.68,4.68,0,0,1-.25,2,5.05,5.05,0,0,1-1.2,1.87,7,7,0,0,1-2.34,1.52L130,42.24l2.44,5.67L129,49.41l-6.8-15.82Zm2.25,7.85a7.92,7.92,0,0,0,1.12-.59,2.73,2.73,0,0,0,.82-.76,2.06,2.06,0,0,0,.37-1,2.68,2.68,0,0,0-.27-1.33,2.87,2.87,0,0,0-.78-1.11,2,2,0,0,0-1-.42,2.93,2.93,0,0,0-1.13.07,8.4,8.4,0,0,0-1.19.41l-2.7,1.16,2,4.74Z"/><path class="cls-2" d="M144.33,24.81l1.87,6.33,6.68-2L151,22.83l3.63-1.07,4.88,16.52-3.64,1.07-2.1-7.13-6.68,2,2.1,7.12-3.63,1.07L140.7,25.88Z"/><path class="cls-2" d="M159.71,20.33l4.18-.75,5.17,6,2.73-7.4,4.15-.75L171.54,29l1.18,6.51-3.72.67-1.2-6.6Z"/><path class="cls-2" d="M184.9,29.47a2.64,2.64,0,0,0,.91.91,3.49,3.49,0,0,0,1.26.45,5.84,5.84,0,0,0,1.45.06,7.51,7.51,0,0,0,1.08-.17,3.72,3.72,0,0,0,1.05-.42,2.31,2.31,0,0,0,.79-.73,1.67,1.67,0,0,0,.25-1.09,1.54,1.54,0,0,0-.54-1.1,3.55,3.55,0,0,0-1.23-.62,11.24,11.24,0,0,0-1.67-.37q-.93-.13-1.89-.33a17.43,17.43,0,0,1-1.93-.43,6.41,6.41,0,0,1-1.7-.77,4.22,4.22,0,0,1-1.28-1.28,4.09,4.09,0,0,1-.61-2,4.5,4.5,0,0,1,.37-2.35,5,5,0,0,1,1.35-1.74,6.43,6.43,0,0,1,2-1.13,8.71,8.71,0,0,1,2.28-.5,10.77,10.77,0,0,1,2.61.08,6.56,6.56,0,0,1,2.28.79,5,5,0,0,1,1.67,1.6,5.26,5.26,0,0,1,.77,2.48l-3.65.31a3,3,0,0,0-.43-1.25,2.07,2.07,0,0,0-.8-.73,3.1,3.1,0,0,0-1.08-.33,6.9,6.9,0,0,0-1.29,0A4.71,4.71,0,0,0,186,19a2.53,2.53,0,0,0-.8.41,2.18,2.18,0,0,0-.56.65,1.61,1.61,0,0,0-.17.93,1.58,1.58,0,0,0,.26.8,1.8,1.8,0,0,0,.81.52,10,10,0,0,0,1.6.4l2.67.45c.32,0,.78.12,1.36.24a6.48,6.48,0,0,1,1.76.67,5.06,5.06,0,0,1,1.58,1.36,4.27,4.27,0,0,1,.8,2.31A5.18,5.18,0,0,1,195,30a4.78,4.78,0,0,1-1.22,1.85,6.56,6.56,0,0,1-2.14,1.33,11.55,11.55,0,0,1-5.83.54,7,7,0,0,1-2.45-.9A5.54,5.54,0,0,1,181.61,31a5.76,5.76,0,0,1-.8-2.7l3.65-.3A3.18,3.18,0,0,0,184.9,29.47Z"/><path class="cls-2" d="M204.16,16.07l0,17.22h-3.78l0-17.22Z"/><path class="cls-2" d="M221.11,21.17a4,4,0,0,0-.76-1A3.94,3.94,0,0,0,218,19.06a4.56,4.56,0,0,0-2.21.3,4.28,4.28,0,0,0-1.56,1.19,5.77,5.77,0,0,0-1,1.82,9.64,9.64,0,0,0-.45,2.16,9.35,9.35,0,0,0,.06,2.12,5.67,5.67,0,0,0,.64,1.91A4.07,4.07,0,0,0,214.8,30a4.47,4.47,0,0,0,2.11.69,3.5,3.5,0,0,0,2.8-.82,4.91,4.91,0,0,0,1.44-2.68l3.65.33a8.62,8.62,0,0,1-1,2.84A6.88,6.88,0,0,1,222,32.43a6.71,6.71,0,0,1-2.43,1.18,8.16,8.16,0,0,1-3,.22,8.73,8.73,0,0,1-3.48-1,7.52,7.52,0,0,1-2.48-2.12,8.49,8.49,0,0,1-1.41-3,10.41,10.41,0,0,1-.26-3.55,10.66,10.66,0,0,1,.89-3.51A8.63,8.63,0,0,1,211.81,18a7.46,7.46,0,0,1,2.82-1.69,8.86,8.86,0,0,1,3.61-.38,8.74,8.74,0,0,1,2.64.65A7.3,7.3,0,0,1,223,17.93,6.44,6.44,0,0,1,224.5,20a6.82,6.82,0,0,1,.58,2.72l-3.65-.33A3,3,0,0,0,221.11,21.17Z"/><path class="cls-2" d="M235.41,18.57l-3,17-3.73-.66,3-16.95Z"/><path class="cls-2" d="M250.2,21.84l1.94,18.27-3.81-1-.3-4-6.24-1.61-2.26,3.38-3.69-.95,10.6-15Zm-2.43,10.28-.52-6.66h-.05L243.45,31Z"/><path class="cls-2" d="M265.08,26.4l2.59,13.35,0,0L271.84,29l3.31,1.27L269,46.33,265.46,45l-2.57-13.32,0,0L258.73,42.4l-3.31-1.27,6.15-16.08Z"/><path class="cls-7" d="M291.9,58.22l3.92-14.47,0,0L285,54.2,283,53l4.9-17.08,2,1.18-4.32,14.07,0,0,10.57-10.41L298.31,42l-3.95,14.28,0,0,10.26-10.59,2,1.16L294,59.43Z"/><path class="cls-7" d="M308.33,54.5a8.48,8.48,0,0,1,3-1.3,7.52,7.52,0,0,1,3.27,0,9,9,0,0,1,5.64,4.44,7.69,7.69,0,0,1,.79,3.17,8.66,8.66,0,0,1-.56,3.23,11.17,11.17,0,0,1-1.69,3,11.34,11.34,0,0,1-2.51,2.34,8.48,8.48,0,0,1-3,1.3,7.48,7.48,0,0,1-3.26,0A8.47,8.47,0,0,1,306.73,69a8.28,8.28,0,0,1-2.36-2.8,7.32,7.32,0,0,1-.8-3.16,8.47,8.47,0,0,1,.56-3.23,11.3,11.3,0,0,1,4.2-5.32Zm-2,6a7,7,0,0,0-.58,2.45,5.42,5.42,0,0,0,.45,2.43,6.25,6.25,0,0,0,4.24,3.34,5.41,5.41,0,0,0,2.47-.13,7.06,7.06,0,0,0,2.24-1.13,9.89,9.89,0,0,0,3.18-4,7,7,0,0,0,.58-2.45,5.42,5.42,0,0,0-.45-2.43,6.25,6.25,0,0,0-4.24-3.34,5.41,5.41,0,0,0-2.47.13,7,7,0,0,0-2.24,1.13,10,10,0,0,0-1.86,1.81A9.58,9.58,0,0,0,306.3,60.48Z"/><path class="cls-7" d="M334.88,70.38A5.71,5.71,0,0,1,336.77,74a4.16,4.16,0,0,1-1.33,3.32A5.33,5.33,0,0,1,333,78.73a3.74,3.74,0,0,1-2.76-.45l0,0a3.28,3.28,0,0,1,.53,1.2,2.7,2.7,0,0,1,0,1.1,3.59,3.59,0,0,1-.45,1,10.21,10.21,0,0,1-.7,1q-.41.48-.84,1a10.75,10.75,0,0,0-.82,1,8.83,8.83,0,0,0-.64,1,3.13,3.13,0,0,0-.31,1.1l-1.82-1.8a1.46,1.46,0,0,1,.27-.74,7.2,7.2,0,0,1,.65-.81l.82-.9a7.64,7.64,0,0,0,.79-1,11.88,11.88,0,0,0,.67-1,2.74,2.74,0,0,0,.37-1,2.28,2.28,0,0,0-.11-1.06,3,3,0,0,0-.78-1.13l-4-3.93-5.16,5.24L317,77l12.09-12.26Zm-5.15,5.9a3.2,3.2,0,0,0,1.24.56,2.5,2.5,0,0,0,1.27-.06,3.25,3.25,0,0,0,1.31-.86,3.09,3.09,0,0,0,1-2,3,3,0,0,0-1.09-2.23l-4.05-4L325.17,72l3.4,3.35A8.62,8.62,0,0,0,329.73,76.28Z"/><path class="cls-7" d="M344.79,81l-6.66,5.41,12.17,1.37,1.87,2.3-10-1.26L339,101.15l-1.83-2.25L340,88.58l-3.89-.53-4.68,3.8L330,90.07l13.36-10.86Z"/><path class="cls-7" d="M361.76,104.12l-1.6,1.07-5-7.52-4.56,3,4.37,6.59-1.61,1.06L349,101.76l-6.57,4.36-1.26-1.91,14.34-9.51Z"/><path class="cls-7" d="M360.24,111.5a8.4,8.4,0,0,1,3.28,0,7.68,7.68,0,0,1,3,1.37,8.2,8.2,0,0,1,2.31,2.85,8.11,8.11,0,0,1,1,3.53,7.46,7.46,0,0,1-.59,3.21,8.46,8.46,0,0,1-1.84,2.71,11.34,11.34,0,0,1-6,3.12,8.55,8.55,0,0,1-3.27-.06,7.39,7.39,0,0,1-2.95-1.38,9.12,9.12,0,0,1-3.31-6.38,7.44,7.44,0,0,1,.58-3.2,8.57,8.57,0,0,1,1.84-2.71,11.23,11.23,0,0,1,6-3.11Zm-4.32,4.61a6.93,6.93,0,0,0-1.53,2,5.45,5.45,0,0,0-.6,2.39,5.71,5.71,0,0,0,.7,2.69,5.62,5.62,0,0,0,1.79,2.11,5.49,5.49,0,0,0,2.3.9,7.1,7.1,0,0,0,2.51-.1,10.2,10.2,0,0,0,2.44-.89,9.62,9.62,0,0,0,2.12-1.48,6.83,6.83,0,0,0,1.54-2,5.51,5.51,0,0,0,.59-2.39,5.65,5.65,0,0,0-.7-2.68,5.34,5.34,0,0,0-4.08-3,6.93,6.93,0,0,0-2.52.11,9.55,9.55,0,0,0-2.43.88A10,10,0,0,0,355.92,116.11Z"/><path class="cls-7" d="M377.84,136.86a5.66,5.66,0,0,1,.27,4,4.17,4.17,0,0,1-2.58,2.49,5.17,5.17,0,0,1-2.82.33,3.69,3.69,0,0,1-2.33-1.54l0,0a3.18,3.18,0,0,1,0,1.31,2.7,2.7,0,0,1-.49,1,4,4,0,0,1-.82.76q-.5.33-1,.63l-1.17.53a11.18,11.18,0,0,0-1.15.57,8.16,8.16,0,0,0-1,.69,2.87,2.87,0,0,0-.73.87l-.93-2.38a1.39,1.39,0,0,1,.56-.57,7.66,7.66,0,0,1,.91-.47l1.12-.49a8.76,8.76,0,0,0,1.14-.59c.36-.22.71-.43,1-.66a2.84,2.84,0,0,0,.76-.79,2.12,2.12,0,0,0,.33-1,3,3,0,0,0-.25-1.35l-2-5.21-6.85,2.66-.83-2.13,16.05-6.24Zm-7.11,3.27a3.44,3.44,0,0,0,.9,1,2.58,2.58,0,0,0,1.19.46,3.14,3.14,0,0,0,1.55-.25,3.06,3.06,0,0,0,1.71-1.44,3,3,0,0,0-.08-2.48l-2.06-5.3-5.6,2.17,1.73,4.45A8.7,8.7,0,0,0,370.73,140.13Z"/><path class="cls-7" d="M382.26,159.24a5.3,5.3,0,0,0,.11-3.26,5.59,5.59,0,0,0-1.21-2.41,5.18,5.18,0,0,0-2-1.36,6.64,6.64,0,0,0-2.42-.47,10.19,10.19,0,0,0-2.61.32,11.62,11.62,0,0,0-2.61,1,6.9,6.9,0,0,0-2,1.59,5.15,5.15,0,0,0-1.05,2.15,5.6,5.6,0,0,0,.1,2.71,5,5,0,0,0,.86,1.86,4.67,4.67,0,0,0,1.38,1.21,4.79,4.79,0,0,0,1.78.58,6.57,6.57,0,0,0,2-.07l.57,2.22a7.82,7.82,0,0,1-5.46-.92,7.28,7.28,0,0,1-3.05-4.59,8.27,8.27,0,0,1-.2-3.56,6.88,6.88,0,0,1,1.22-2.88,8.08,8.08,0,0,1,2.38-2.14,12.23,12.23,0,0,1,3.29-1.35,11.55,11.55,0,0,1,3.56-.37,8.65,8.65,0,0,1,3.17.79,7.33,7.33,0,0,1,2.52,2,8.28,8.28,0,0,1,1.56,3.22,8.74,8.74,0,0,1,.28,2.56,7,7,0,0,1-.49,2.35,6.11,6.11,0,0,1-1.3,1.95,6.56,6.56,0,0,1-2.15,1.4l-.57-2.22A4.27,4.27,0,0,0,382.26,159.24Z"/><path class="cls-7" d="M388.75,180.7l-1.9.29-1.48-9.48-5.41.85,1.38,8.84-1.91.29-1.38-8.83-5.88.92,1.49,9.55-1.91.3-1.84-11.82,17-2.66Z"/><path class="cls-2" d="M383.7,197.39a6.16,6.16,0,0,1,2,1.32,6.23,6.23,0,0,1,1.31,2,6.23,6.23,0,0,1,0,4.82,6.56,6.56,0,0,1-1.33,2,6.08,6.08,0,0,1-4.38,1.81,5.94,5.94,0,0,1-2.41-.5,6.25,6.25,0,0,1-2-1.34,6.56,6.56,0,0,1-1.33-2,6.2,6.2,0,0,1,0-4.83,6.05,6.05,0,0,1,1.34-2,6.51,6.51,0,0,1,2-1.31,6.15,6.15,0,0,1,2.42-.48A5.91,5.91,0,0,1,383.7,197.39Z"/><path class="cls-7" d="M33.06,227.69l-13.23,8L35,238.38l.57,3.08L18.68,244.6l-.39-2.13,14.08-2.61v-.05L17.3,237.13,17,235.21l13.1-7.89v0L16,229.88l-.4-2.14,16.93-3.13Z"/><path class="cls-7" d="M37.65,249l-16.59,4.6-.61-2.21L37,246.8Z"/><path class="cls-7" d="M40,263.73a4.93,4.93,0,0,0-.24-3,6.66,6.66,0,0,0-.64-1.28,3.58,3.58,0,0,0-.88-1,2.52,2.52,0,0,0-1.15-.49,2.89,2.89,0,0,0-1.44.18,1.8,1.8,0,0,0-1,.9,3.41,3.41,0,0,0-.32,1.45,11,11,0,0,0,.13,1.84c.11.67.2,1.35.29,2s.14,1.39.17,2.08a6.66,6.66,0,0,1-.2,2,4.23,4.23,0,0,1-.88,1.66,4.84,4.84,0,0,1-4.24,1.43,5,5,0,0,1-2-.92,6.86,6.86,0,0,1-1.59-1.71A10.48,10.48,0,0,1,24.17,264a6.91,6.91,0,0,1,.24-2.51,5.2,5.2,0,0,1,1.22-2.1A6.07,6.07,0,0,1,28,257.94l.76,2a4,4,0,0,0-1.6,1,3.78,3.78,0,0,0-.82,1.49,4.5,4.5,0,0,0-.14,1.77,7.45,7.45,0,0,0,.43,1.84,9.12,9.12,0,0,0,.68,1.41,4.52,4.52,0,0,0,1,1.15,2.73,2.73,0,0,0,1.24.61,2.88,2.88,0,0,0,1.58-.17,2.15,2.15,0,0,0,1.19-.95,3.33,3.33,0,0,0,.41-1.49,8.57,8.57,0,0,0-.09-1.86c-.09-.67-.19-1.35-.28-2s-.17-1.39-.21-2.07a7.2,7.2,0,0,1,.13-1.94A3.55,3.55,0,0,1,34.64,256a4.47,4.47,0,0,1,4.26.48,6.55,6.55,0,0,1,1.56,1.55,9,9,0,0,1,1.09,2.06,8.74,8.74,0,0,1,.56,2.41,5.4,5.4,0,0,1-.23,2.21,4.71,4.71,0,0,1-1.12,1.86,5.92,5.92,0,0,1-2.1,1.36l-.76-2A3.57,3.57,0,0,0,40,263.73Z"/><path class="cls-7" d="M47,280a4.91,4.91,0,0,0-.54-3,7.18,7.18,0,0,0-.75-1.21,3.93,3.93,0,0,0-1-.9,2.51,2.51,0,0,0-1.2-.39,3,3,0,0,0-1.41.33,1.86,1.86,0,0,0-1,1,3.34,3.34,0,0,0-.17,1.48,10.05,10.05,0,0,0,.31,1.82c.17.66.33,1.32.49,2s.28,1.37.37,2.06a6.5,6.5,0,0,1,0,2,4,4,0,0,1-.71,1.74,4.23,4.23,0,0,1-1.69,1.36,4.39,4.39,0,0,1-2.39.48,5,5,0,0,1-2.12-.72,6.88,6.88,0,0,1-1.75-1.54,10.15,10.15,0,0,1-1.29-2,9.69,9.69,0,0,1-.88-2.61,6.68,6.68,0,0,1,0-2.52,5.11,5.11,0,0,1,1-2.21,6,6,0,0,1,2.19-1.7l.95,1.94A3.87,3.87,0,0,0,34,278.6a3.82,3.82,0,0,0-.67,1.57,4.41,4.41,0,0,0,0,1.77,7.28,7.28,0,0,0,.61,1.79,8.85,8.85,0,0,0,.81,1.34,4.83,4.83,0,0,0,1.07,1.05,2.86,2.86,0,0,0,1.3.49,2.81,2.81,0,0,0,1.55-.34,2.17,2.17,0,0,0,1.1-1,3.57,3.57,0,0,0,.26-1.53,9.2,9.2,0,0,0-.27-1.84c-.16-.65-.32-1.32-.49-2s-.3-1.36-.41-2.05a7.5,7.5,0,0,1-.06-1.94,3.59,3.59,0,0,1,2.16-3,4.64,4.64,0,0,1,2.25-.52,4.76,4.76,0,0,1,2,.58,6.26,6.26,0,0,1,1.7,1.4,9,9,0,0,1,1.29,1.93,9.47,9.47,0,0,1,.8,2.35,5.52,5.52,0,0,1,0,2.22,4.67,4.67,0,0,1-.93,2,6.08,6.08,0,0,1-2,1.57l-1-1.95A3.59,3.59,0,0,0,47,280Z"/><path class="cls-7" d="M54.7,289.36,39.83,298l-1.16-2,14.88-8.67Z"/><path class="cls-7" d="M60.69,303a4.9,4.9,0,0,0-1-2.88,8,8,0,0,0-.93-1.08,4.06,4.06,0,0,0-1.11-.74,2.61,2.61,0,0,0-1.24-.19,2.86,2.86,0,0,0-1.34.55,1.77,1.77,0,0,0-.79,1.12,3.46,3.46,0,0,0,.06,1.49,10.1,10.1,0,0,0,.6,1.75c.26.62.53,1.26.79,1.91s.49,1.31.69,2a6.82,6.82,0,0,1,.3,2,4.17,4.17,0,0,1-.43,1.83,4.26,4.26,0,0,1-1.46,1.6,4.31,4.31,0,0,1-2.28.85,5.06,5.06,0,0,1-2.21-.38,7,7,0,0,1-2-1.25,10.3,10.3,0,0,1-1.59-1.79,10,10,0,0,1-1.28-2.44,6.69,6.69,0,0,1-.4-2.49,5,5,0,0,1,.65-2.34,6.11,6.11,0,0,1,1.89-2l1.25,1.78a3.91,3.91,0,0,0-1.29,1.42,3.87,3.87,0,0,0-.41,1.65,4.51,4.51,0,0,0,.31,1.74,7.49,7.49,0,0,0,.88,1.68,8.61,8.61,0,0,0,1,1.19,4.72,4.72,0,0,0,1.22.87A2.89,2.89,0,0,0,52,311a2.81,2.81,0,0,0,1.48-.57,2.19,2.19,0,0,0,.92-1.22,3.46,3.46,0,0,0,0-1.54,9.07,9.07,0,0,0-.56-1.78L53,304c-.27-.65-.51-1.3-.72-2a7,7,0,0,1-.37-1.91,3.94,3.94,0,0,1,.32-1.76,3.84,3.84,0,0,1,1.34-1.51,4.5,4.5,0,0,1,2.15-.86,4.67,4.67,0,0,1,2.1.25,6.7,6.7,0,0,1,1.9,1.11,9.39,9.39,0,0,1,2.72,3.91,5.47,5.47,0,0,1,.34,2.2,4.77,4.77,0,0,1-.62,2.08,6,6,0,0,1-1.69,1.85l-1.25-1.78A3.62,3.62,0,0,0,60.69,303Z"/><path class="cls-7" d="M71.68,317a4.82,4.82,0,0,0-1.27-2.76,6.94,6.94,0,0,0-1-1,3.82,3.82,0,0,0-1.17-.63,2.52,2.52,0,0,0-1.25-.07,2.77,2.77,0,0,0-1.29.67,1.8,1.8,0,0,0-.67,1.2,3.41,3.41,0,0,0,.2,1.47,10.68,10.68,0,0,0,.76,1.69c.32.59.65,1.19,1,1.82s.62,1.25.88,1.89a6.93,6.93,0,0,1,.48,1.92,4.26,4.26,0,0,1-.24,1.87,4.35,4.35,0,0,1-1.31,1.73,4.3,4.3,0,0,1-2.19,1.06,5,5,0,0,1-2.23-.16,6.83,6.83,0,0,1-2.08-1.06,10.48,10.48,0,0,1-1.76-1.62,10,10,0,0,1-1.5-2.32,6.65,6.65,0,0,1-.64-2.43,5.13,5.13,0,0,1,.42-2.4,6.17,6.17,0,0,1,1.69-2.19l1.41,1.64a4,4,0,0,0-1.14,1.54,3.9,3.9,0,0,0-.26,1.68,4.59,4.59,0,0,0,.48,1.71,7.31,7.31,0,0,0,1,1.58A8.27,8.27,0,0,0,61.09,325a4.71,4.71,0,0,0,1.29.75,2.71,2.71,0,0,0,1.38.15,2.81,2.81,0,0,0,1.42-.71,2.16,2.16,0,0,0,.8-1.3,3.45,3.45,0,0,0-.13-1.54,8.71,8.71,0,0,0-.72-1.71l-1-1.82c-.33-.62-.63-1.25-.91-1.88a7.54,7.54,0,0,1-.55-1.86,3.88,3.88,0,0,1,.16-1.79,3.75,3.75,0,0,1,1.19-1.63,4.45,4.45,0,0,1,2-1.06,4.55,4.55,0,0,1,2.11.05,6.45,6.45,0,0,1,2,.92,9.12,9.12,0,0,1,1.73,1.56,9.58,9.58,0,0,1,1.36,2.07,5.64,5.64,0,0,1,.54,2.15,4.86,4.86,0,0,1-.41,2.14,6.18,6.18,0,0,1-1.51,2l-1.41-1.65A3.56,3.56,0,0,0,71.68,317Z"/><path class="cls-7" d="M81.35,324l-12.1,12.25-1.63-1.61,12.1-12.25Z"/><path class="cls-7" d="M91.46,333.33a5.38,5.38,0,0,1,2.13,3.59,5.94,5.94,0,0,1-4.89,5.7,5.19,5.19,0,0,1-3.85-1.55l-4-3.42L76.27,343l-1.74-1.49,11.2-13.08Zm-5.95,5.77a4.11,4.11,0,0,0,2.69,1.25,3.52,3.52,0,0,0,3.07-3.58,4.24,4.24,0,0,0-1.65-2.47l-3.41-2.92-4.1,4.8Z"/><path class="cls-7" d="M105,343.79a5.32,5.32,0,0,1,2.46,3.36,5.94,5.94,0,0,1-4.32,6.14,5.22,5.22,0,0,1-4-1.18l-4.3-3-4,5.77-1.87-1.32,9.89-14.09Zm-5.37,6.3a4.09,4.09,0,0,0,2.79,1,3,3,0,0,0,2.1-1.41,3,3,0,0,0,.61-2.45,4.23,4.23,0,0,0-1.87-2.3l-3.67-2.58L96,347.51Z"/><path class="cls-7" d="M115.65,350.63,107,365.5l-2-1.15,8.67-14.88Z"/><path class="cls-2" d="M136.87,361.23a7.25,7.25,0,0,1,2.36,1.49,5.11,5.11,0,0,1,1.23,1.86,4.79,4.79,0,0,1,.28,2,6.56,6.56,0,0,1-.49,2,6.42,6.42,0,0,1-1.08,1.76,4.73,4.73,0,0,1-1.64,1.23,5,5,0,0,1-2.18.44,7.24,7.24,0,0,1-2.72-.62L129,369.9l-2.37,5.7-3.49-1.45,6.6-15.9Zm-4.06,7.09a9.18,9.18,0,0,0,1.19.39,3.08,3.08,0,0,0,1.12.06,2,2,0,0,0,1-.44,2.8,2.8,0,0,0,.77-1.12,2.75,2.75,0,0,0,.25-1.33,2,2,0,0,0-.38-1,3,3,0,0,0-.83-.75,9,9,0,0,0-1.12-.57l-2.72-1.13-2,4.77Z"/><path class="cls-2" d="M149.56,366l-1.84,6.35,6.69,1.94,1.84-6.34,3.64,1.05-4.81,16.54-3.63-1.06,2.07-7.13-6.69-1.95-2.07,7.13-3.64-1.05L145.93,365Z"/><path class="cls-2" d="M162.68,370l4.18.72,2.82,7.38,5.1-6,4.16.72-8.1,9.37-1.12,6.51L166,388l1.13-6.61Z"/><path class="cls-2" d="M184,386.41a2.64,2.64,0,0,0,.76,1,3.61,3.61,0,0,0,1.18.64,5.58,5.58,0,0,0,1.43.28,7.85,7.85,0,0,0,1.08,0,3.74,3.74,0,0,0,1.11-.25,2.38,2.38,0,0,0,.89-.6,1.69,1.69,0,0,0,.41-1.05,1.51,1.51,0,0,0-.37-1.16,3.41,3.41,0,0,0-1.11-.8,12.16,12.16,0,0,0-1.6-.62c-.6-.19-1.21-.39-1.82-.61a19.49,19.49,0,0,1-1.84-.72,6.64,6.64,0,0,1-1.57-1,4.22,4.22,0,0,1-1.07-1.46,4.27,4.27,0,0,1-.31-2,4.62,4.62,0,0,1,.73-2.26,5.13,5.13,0,0,1,1.59-1.52,6.57,6.57,0,0,1,2.14-.82,9.17,9.17,0,0,1,2.33-.15,10.65,10.65,0,0,1,2.56.48,6.35,6.35,0,0,1,2.14,1.13,4.9,4.9,0,0,1,1.41,1.83,5.35,5.35,0,0,1,.38,2.57l-3.65-.25a3.11,3.11,0,0,0-.24-1.3,2.09,2.09,0,0,0-.68-.84,3,3,0,0,0-1-.49,7.65,7.65,0,0,0-1.27-.21,4.14,4.14,0,0,0-.93,0,2.49,2.49,0,0,0-.85.27,2.08,2.08,0,0,0-.65.56,1.64,1.64,0,0,0-.31.9,1.5,1.5,0,0,0,.14.83,1.66,1.66,0,0,0,.71.63,10.1,10.1,0,0,0,1.53.64l2.57.86a13.31,13.31,0,0,1,1.3.44,6.48,6.48,0,0,1,1.65.92,5.36,5.36,0,0,1,1.35,1.58,4.27,4.27,0,0,1,.44,2.42,5.19,5.19,0,0,1-.6,2.15,5,5,0,0,1-1.48,1.65,6.54,6.54,0,0,1-2.32,1,11.57,11.57,0,0,1-5.85-.35,6.64,6.64,0,0,1-2.28-1.26,5.24,5.24,0,0,1-1.49-2,5.66,5.66,0,0,1-.39-2.78l3.66.25A3.18,3.18,0,0,0,184,386.41Z"/><path class="cls-2" d="M204,374.27l.1,17.22-3.78,0-.11-17.21Z"/><path class="cls-2" d="M220.57,378a3.86,3.86,0,0,0-2.13-1.4,4.07,4.07,0,0,0-1.35-.1,4.37,4.37,0,0,0-2.12.7,4,4,0,0,0-1.31,1.45,5.78,5.78,0,0,0-.63,2,9.59,9.59,0,0,0,0,2.21,9,9,0,0,0,.45,2.08,5.7,5.7,0,0,0,1,1.76A4.08,4.08,0,0,0,216,387.8a4.41,4.41,0,0,0,2.2.29,3.5,3.5,0,0,0,2.6-1.32,4.86,4.86,0,0,0,.92-2.89l3.65-.35a8.81,8.81,0,0,1-.46,3,6.84,6.84,0,0,1-3.55,4,8.54,8.54,0,0,1-2.86.75,8.65,8.65,0,0,1-3.6-.35,7.55,7.55,0,0,1-2.84-1.63,8.52,8.52,0,0,1-1.92-2.66,10.33,10.33,0,0,1-.91-3.44,10.81,10.81,0,0,1,.24-3.62,8.6,8.6,0,0,1,1.38-3,7.65,7.65,0,0,1,2.47-2.18,8.81,8.81,0,0,1,3.48-1,8.71,8.71,0,0,1,2.71.15,7.33,7.33,0,0,1,2.37,1,6.55,6.55,0,0,1,1.83,1.77,7.16,7.16,0,0,1,1.07,2.57l-3.65.34A3.1,3.1,0,0,0,220.57,378Z"/><path class="cls-2" d="M232.7,371.63l2.92,17-3.73.65-2.92-17Z"/><path class="cls-2" d="M246.16,368.66l10.62,15-3.81,1-2.23-3.38-6.23,1.64-.33,4.05-3.68,1,1.9-18.31Zm2.9,10.15-3.71-5.55h0l-.55,6.68Z"/><path class="cls-2" d="M258.76,364.92l10.87,8.17.05,0-4.17-10.77,3.3-1.28L275,377.08l-3.53,1.37-10.84-8.17-.05,0,4.16,10.75-3.3,1.28-6.22-16.05Z"/><path class="cls-7" d="M301.38,363.47l-10.81-10.39,0,0,4,14.46-2,1.23-12.64-12.5,2-1.2,10.26,10.55,0,0-4.06-14.27,2.13-1.28,10.63,10.33.05,0-4.37-14.09,2-1.17,4.9,17.13Z"/><path class="cls-7" d="M304.52,347.31a8.62,8.62,0,0,1-.57-3.22,7.51,7.51,0,0,1,.77-3.17,9.09,9.09,0,0,1,5.62-4.48,7.68,7.68,0,0,1,3.27,0,8.77,8.77,0,0,1,3,1.29,11.07,11.07,0,0,1,2.51,2.33,11.34,11.34,0,0,1,1.71,3,8.67,8.67,0,0,1,.57,3.23,7.44,7.44,0,0,1-.78,3.16,9.12,9.12,0,0,1-5.62,4.47,7.33,7.33,0,0,1-3.26,0,8.56,8.56,0,0,1-3-1.28,11.42,11.42,0,0,1-4.22-5.31Zm5.36,3.35a6.78,6.78,0,0,0,2.25,1.12,5.41,5.41,0,0,0,2.47.12,5.57,5.57,0,0,0,2.49-1.2,5.63,5.63,0,0,0,1.74-2.16,5.4,5.4,0,0,0,.43-2.43,6.85,6.85,0,0,0-.58-2.44,9.58,9.58,0,0,0-1.34-2.22,10.29,10.29,0,0,0-1.86-1.81,7,7,0,0,0-2.25-1.12,5.92,5.92,0,0,0-6.69,3.25,5.27,5.27,0,0,0-.44,2.43,6.85,6.85,0,0,0,.58,2.44,10,10,0,0,0,1.34,2.22A9.91,9.91,0,0,0,309.88,350.66Z"/><path class="cls-7" d="M323.2,324.44a5.68,5.68,0,0,1,3.58-1.85,4.18,4.18,0,0,1,3.31,1.38,5.18,5.18,0,0,1,1.42,2.45,3.63,3.63,0,0,1-.48,2.75l0,0a3.15,3.15,0,0,1,1.21-.51,2.54,2.54,0,0,1,1.1.05,3.71,3.71,0,0,1,1,.45c.33.22.66.45,1,.72s.63.56.95.86a12.52,12.52,0,0,0,1,.82,7.76,7.76,0,0,0,1,.65,2.7,2.7,0,0,0,1.09.33l-1.82,1.8a1.42,1.42,0,0,1-.74-.29,6.94,6.94,0,0,1-.8-.65l-.89-.83a7.7,7.7,0,0,0-1-.81,11.92,11.92,0,0,0-1-.68,2.7,2.7,0,0,0-1-.38,2.28,2.28,0,0,0-1.06.1,3,3,0,0,0-1.14.77l-4,3.93,5.16,5.23-1.62,1.61-12.11-12.25Zm5.83,5.22a3.26,3.26,0,0,0,.57-1.23,2.53,2.53,0,0,0,0-1.28,3.12,3.12,0,0,0-.85-1.31,3,3,0,0,0-2-1,3,3,0,0,0-2.24,1.06l-4.05,4,4.22,4.27,3.4-3.36A9.46,9.46,0,0,0,329,329.66Z"/><path class="cls-7" d="M331.91,315.18l6.66,5.43-1.14-12.19,1.87-2.3.8,10,12.73.64L351,319l-10.67-.68.26,3.91,4.67,3.81-1.45,1.78L330.47,317Z"/><path class="cls-7" d="M347.94,293.35l1.62,1.06L344.65,302l4.59,3,4.3-6.63,1.62,1.05L350.85,306l6.62,4.3-1.25,1.92-14.44-9.38Z"/><path class="cls-7" d="M355,292.2a8.3,8.3,0,0,1-1.84-2.71,7.52,7.52,0,0,1-.59-3.21,9,9,0,0,1,3.32-6.37,7.47,7.47,0,0,1,3-1.37,8.4,8.4,0,0,1,3.28-.05,11,11,0,0,1,3.24,1.1,11.21,11.21,0,0,1,2.77,2,8.74,8.74,0,0,1,1.84,2.71,7.51,7.51,0,0,1,.57,3.21,9.12,9.12,0,0,1-3.31,6.38,7.61,7.61,0,0,1-3,1.37,8.75,8.75,0,0,1-3.27.05,11.08,11.08,0,0,1-3.25-1.11A10.91,10.91,0,0,1,355,292.2Zm6.25.88a7.12,7.12,0,0,0,2.51.11,5.53,5.53,0,0,0,2.31-.9,6.23,6.23,0,0,0,2.49-4.79,5.45,5.45,0,0,0-.59-2.4,7.11,7.11,0,0,0-1.53-2,9.83,9.83,0,0,0-2.13-1.49,10,10,0,0,0-2.43-.88,6.88,6.88,0,0,0-2.51-.11,5.23,5.23,0,0,0-2.3.9,6.23,6.23,0,0,0-2.49,4.79,5.32,5.32,0,0,0,.59,2.4,6.76,6.76,0,0,0,1.53,2,9.72,9.72,0,0,0,2.12,1.48A10,10,0,0,0,361.2,293.08Z"/><path class="cls-7" d="M362.38,264.14a5.66,5.66,0,0,1,2.51-3.15,4.16,4.16,0,0,1,3.59-.1,5.2,5.2,0,0,1,2.3,1.65,3.72,3.72,0,0,1,.69,2.71l0,0a3.09,3.09,0,0,1,.89-1,2.64,2.64,0,0,1,1-.41,3.57,3.57,0,0,1,1.13,0q.58.09,1.2.24c.4.12.81.25,1.22.4a11.27,11.27,0,0,0,1.23.34,7.53,7.53,0,0,0,1.21.18,3,3,0,0,0,1.13-.15l-.92,2.39a1.47,1.47,0,0,1-.79,0,8,8,0,0,1-1-.27l-1.15-.39a7.11,7.11,0,0,0-1.24-.33q-.63-.14-1.2-.21a3,3,0,0,0-1.09.07,2.39,2.39,0,0,0-.93.52,3.09,3.09,0,0,0-.72,1.17l-2,5.22,6.86,2.65-.83,2.14-16.05-6.22Zm7.46,2.37a3.25,3.25,0,0,0,0-1.35,2.69,2.69,0,0,0-.56-1.15,3.28,3.28,0,0,0-1.31-.86,3.12,3.12,0,0,0-2.24-.09,2.92,2.92,0,0,0-1.61,1.89l-2.06,5.3,5.6,2.17L369.4,268A8.63,8.63,0,0,0,369.84,266.51Z"/><path class="cls-7" d="M371,245a5.3,5.3,0,0,0-1.69,2.79,5.57,5.57,0,0,0-.11,2.7,5.22,5.22,0,0,0,1,2.14,6.67,6.67,0,0,0,1.89,1.59,10,10,0,0,0,2.43,1,10.93,10.93,0,0,0,2.78.38,6.4,6.4,0,0,0,2.48-.43,5.1,5.1,0,0,0,2-1.36,5.66,5.66,0,0,0,1.24-2.42,5.17,5.17,0,0,0,.15-2,4.47,4.47,0,0,0-.61-1.73,4.72,4.72,0,0,0-1.27-1.37,6.58,6.58,0,0,0-1.81-.93l.59-2.21a7.78,7.78,0,0,1,4.32,3.46,7.26,7.26,0,0,1,.42,5.49,8.3,8.3,0,0,1-1.56,3.21,6.7,6.7,0,0,1-2.46,1.92,8.16,8.16,0,0,1-3.13.71,12.12,12.12,0,0,1-3.53-.42,11.55,11.55,0,0,1-3.28-1.42,8.56,8.56,0,0,1-2.39-2.24,7.13,7.13,0,0,1-1.22-3,8.33,8.33,0,0,1,.2-3.58,8.89,8.89,0,0,1,1-2.38,6.84,6.84,0,0,1,1.57-1.8,5.84,5.84,0,0,1,2.09-1.07,6.48,6.48,0,0,1,2.55-.18l-.58,2.22A4.26,4.26,0,0,0,371,245Z"/><path class="cls-7" d="M372.4,224.18l1.9.3L372.79,234l5.41.86,1.4-8.84,1.91.31-1.41,8.83,5.89.94,1.52-9.55,1.9.3-1.88,11.81-17-2.7Z"/></svg>