<?xml version="1.0" encoding="utf-8"?>
<!-- Generator: Adobe Illustrator 23.1.0, SVG Export Plug-In . SVG Version: 6.00 Build 0)  -->
<svg version="1.1" id="Layer_1" xmlns="http://www.w3.org/2000/svg" xmlns:xlink="http://www.w3.org/1999/xlink" x="0px" y="0px"
	 viewBox="0 0 84.6 85.7" style="enable-background:new 0 0 84.6 85.7;" xml:space="preserve">
<style type="text/css">
	.st0{fill:#FFFFFF; stroke:#FFFFFF; stroke-width: 1px;}
</style>
<path id="_67" class="st0" d="M65.1,62.7c-0.3-0.2-0.6-0.4-1-0.4C78.1,47.4,77.3,24,62.4,10C55.5,3.6,46.5,0,37.1,0
	C16.6,0,0,16.6,0,37.1c0,0,0,0,0,0c-0.1,20.4,16.4,37,36.8,37.1c9.5,0,18.6-3.5,25.5-10c0,0.3,0.2,0.7,0.4,0.9l19,20
	c0.7,0.7,1.8,0.7,2.4,0c0.7-0.7,0.7-1.8,0-2.4l0,0L65.1,62.7z M60.8,60.9C47.7,74,26.4,74,13.3,60.9C7,54.6,3.5,46,3.5,37.1
	c0-18.6,15.1-33.6,33.6-33.6s33.6,15.1,33.6,33.6C70.7,46.1,67.1,54.6,60.8,60.9z"/>
</svg>
